<svg width="13" height="12" viewBox="0 0 13 12" fill="none" xmlns="http://www.w3.org/2000/svg">
<g id="Group">
<g id="Group_2">
<path id="Vector" d="M8.61288 2.5578C9.17614 2.5578 9.63275 2.10119 9.63275 1.53793C9.63275 0.974676 9.17614 0.518066 8.61288 0.518066C8.04963 0.518066 7.59302 0.974676 7.59302 1.53793C7.59302 2.10119 8.04963 2.5578 8.61288 2.5578Z" fill="black"/>
<path id="Vector_2" d="M12.4375 5.87253V3.98578L9.89293 2.90982C9.3932 2.70075 8.81187 2.87412 8.51101 3.32287L8.00108 4.13876C7.65942 4.74048 7.02711 5.18922 6.26221 5.3218L6.2928 5.3524C6.64466 5.70425 7.0679 5.89803 7.54724 5.94902C7.95518 5.73485 8.32234 5.44929 8.613 5.11273L8.91896 6.64253L8.32744 7.20346L7.8481 7.6573V8.04485V10.9719C7.8481 11.2523 8.07757 11.4818 8.35803 11.4818C8.6385 11.4818 8.86796 11.2523 8.86796 10.9719V8.4222L9.93882 7.40233L10.7649 11.0687C10.821 11.3084 11.0352 11.4818 11.285 11.4818C11.6216 11.4818 11.8715 11.1758 11.8052 10.8495L10.8159 5.87253L10.4998 4.29174L11.4176 4.64869V5.87253C11.4176 6.15299 11.6471 6.38246 11.9276 6.38246C12.208 6.38246 12.4375 6.15299 12.4375 5.87253Z" fill="black"/>
<path id="Vector_3" d="M5.44636 4.4498C5.55855 4.52629 5.68603 4.57218 5.81351 4.59768C5.8798 4.60788 5.941 4.61807 6.00729 4.61807C6.07358 4.61807 6.13987 4.61297 6.20106 4.59768C6.26735 4.58748 6.32855 4.56708 6.38974 4.54158C6.51212 4.49059 6.62941 4.4192 6.72629 4.31721C6.97616 4.06735 7.06795 3.72059 7.00676 3.39933C6.97106 3.21066 6.87927 3.02198 6.72629 2.8741C6.62941 2.77722 6.51212 2.70073 6.38974 2.64973C6.32855 2.62424 6.26735 2.60384 6.20106 2.59364C6.13477 2.58344 6.07358 2.57324 6.00729 2.57324C5.9461 2.57324 5.89 2.57834 5.82881 2.58854C5.75742 2.59874 5.68603 2.61914 5.61974 2.64463C5.50245 2.70073 5.38517 2.77722 5.28828 2.8741C5.1353 3.02198 5.04351 3.21066 5.00782 3.39933C4.94663 3.72059 5.03841 4.06735 5.28828 4.31721C5.33418 4.36821 5.39027 4.409 5.44636 4.4498Z" fill="black"/>
<path id="Vector_4" d="M5.93075 5.70918L4.91089 4.68932C4.85989 4.63832 4.8089 4.59753 4.75281 4.55673C4.64062 4.48534 4.51314 4.43435 4.38566 4.41395C4.31937 4.39865 4.25817 4.39355 4.19188 4.39355C3.93182 4.39355 3.67175 4.49554 3.47288 4.69442L1.7697 6.39759C1.56063 6.60666 1.45354 6.89733 1.47394 7.18289C1.47394 7.27468 1.49434 7.37156 1.53003 7.46335L2.07566 8.96765L0.586655 10.4567C0.387782 10.6555 0.387782 10.9768 0.586655 11.1757C0.785529 11.3745 1.10679 11.3745 1.30566 11.1757L3.11082 9.3705V8.23845L3.76864 8.86567V10.9717C3.76864 11.2522 3.99811 11.4816 4.27857 11.4816C4.55903 11.4816 4.7885 11.2522 4.7885 10.9717V8.42203L3.70745 7.34097L4.91089 6.13753L5.27294 6.49958C5.79307 7.00951 6.43559 7.36137 7.20559 7.48885C7.53194 7.54494 7.82261 7.25938 7.79711 6.92792C7.78181 6.68315 7.59314 6.48428 7.35347 6.44859C6.77724 6.3568 6.30301 6.08143 5.93075 5.70918Z" fill="black"/>
</g>
</g>
</svg>
