<svg width="8" height="8" viewBox="0 0 8 8" fill="none" xmlns="http://www.w3.org/2000/svg">
<g id="whatshot" clip-path="url(#clip0_359_434)">
<path id="Vector" d="M4.04141 4.33823C3.64475 4.4199 3.4085 4.67656 3.4085 5.04115C3.4085 5.43198 3.73225 5.74698 4.13475 5.74698C4.73266 5.74698 5.21683 5.26281 5.21683 4.6649C5.21683 4.35281 5.17308 4.04656 5.08266 3.7549C4.85225 4.06698 4.441 4.25656 4.04141 4.33823ZM4.60433 0.695312C4.60433 0.695312 4.82016 1.46823 4.82016 2.09531C4.82016 2.69615 4.42641 3.18323 3.82558 3.18323C3.22183 3.18323 2.76683 2.69615 2.76683 2.09531L2.77558 1.99031C2.18641 2.69031 1.8335 3.5974 1.8335 4.58323C1.8335 5.8724 2.87766 6.91656 4.16683 6.91656C5.456 6.91656 6.50016 5.8724 6.50016 4.58323C6.50016 3.01115 5.74475 1.60823 4.60433 0.695312ZM4.16683 6.33323C3.20141 6.33323 2.41683 5.54865 2.41683 4.58323C2.41683 4.13698 2.50433 3.69656 2.66766 3.29115C2.96225 3.58573 3.37058 3.76656 3.82558 3.76656C4.60141 3.76656 5.211 3.23281 5.36558 2.47448C5.72433 3.11615 5.91683 3.83656 5.91683 4.58323C5.91683 5.54865 5.13225 6.33323 4.16683 6.33323Z" fill="white"/>
</g>
<defs>
<clipPath id="clip0_359_434">
<rect width="7" height="7" fill="white" transform="translate(0.666748 0.5)"/>
</clipPath>
</defs>
</svg>
